<?xml version="1.0" standalone="no"?>
<!DOCTYPE svg PUBLIC "-//W3C//DTD SVG 20010904//EN"
 "http://www.w3.org/TR/2001/REC-SVG-20010904/DTD/svg10.dtd">
<svg version="1.0" xmlns="http://www.w3.org/2000/svg"
 width="260.000000pt" height="260.000000pt" viewBox="0 0 260.000000 260.000000"
 preserveAspectRatio="xMidYMid meet">
<metadata>
Created by potrace 1.11, written by Peter Selinger 2001-2013
</metadata>
<g transform="translate(0.000000,260.000000) scale(0.100000,-0.100000)"
fill="#000000" stroke="none">
<path d="M1408 2416 c-1 -2 -28 -6 -58 -9 -122 -14 -301 -73 -429 -143 -277
-152 -491 -414 -594 -729 -59 -179 -72 -269 -71 -475 1 -162 20 -265 75 -395
83 -200 255 -359 464 -429 81 -27 93 -30 215 -50 164 -27 796 -1 881 36 29 13
48 38 55 72 2 11 11 55 19 96 8 41 17 86 20 100 3 14 7 36 10 50 7 31 7 32 40
205 15 77 35 158 45 181 21 48 63 77 144 98 74 20 86 30 86 76 l0 38 -102 -6
c-137 -8 -397 -7 -535 1 -62 4 -113 4 -114 0 0 -5 -2 -17 -4 -28 -9 -44 7 -58
78 -72 25 -4 78 -32 101 -52 33 -28 37 -58 22 -135 -8 -39 -18 -87 -21 -106
-3 -19 -12 -66 -20 -105 -27 -133 -47 -240 -51 -269 -2 -16 -5 -31 -7 -33 -19
-18 -465 -27 -526 -10 -149 41 -236 90 -327 182 -166 171 -234 425 -201 755 7
66 10 84 28 180 75 393 316 698 633 800 124 40 170 47 318 45 153 -2 168 -4
256 -37 78 -29 121 -58 169 -112 50 -57 78 -113 94 -193 7 -33 18 -68 24 -77
15 -20 52 -26 88 -13 28 9 28 10 21 71 -4 33 -6 138 -6 232 l1 171 -77 18
c-256 58 -372 72 -584 73 -86 0 -158 -1 -160 -2z"/>
</g>
</svg>
